<?xml version="1.0" encoding="UTF-8" standalone="yes"?>
<svg version="1.2" width="100%" viewBox="0 0 3024 3024" xml:space="preserve" baseProfile="tiny-ps" xmlns="http://www.w3.org/2000/svg">
  <title>bimi-svg-tiny-12-ps</title>
  <path fill="#F40CB7" stroke="none" d="&#xA;M1588.000000,3026.000000 &#xA;&#x9;C1058.666748,3026.000000 530.333496,3026.000000 2.000213,3026.000000 &#xA;&#x9;C2.000142,2018.000244 2.000142,1010.000549 2.000071,2.000618 &#xA;&#x9;C1009.999512,2.000412 2017.999023,2.000412 3025.999023,2.000206 &#xA;&#x9;C3025.999268,1009.999329 3025.999268,2017.998657 3025.999512,3025.999023 &#xA;&#x9;C2547.000000,3026.000000 2068.000000,3026.000000 1588.000000,3026.000000 &#xA;M1775.000000,460.003662 &#xA;&#x9;C1221.374390,460.003662 667.748840,460.002197 114.123291,460.009857 &#xA;&#x9;C94.365479,460.010132 96.021408,458.460083 96.021126,478.569153 &#xA;&#x9;C96.011711,1144.186157 96.013344,1809.803223 96.013390,2475.420166 &#xA;&#x9;C96.013397,2477.753418 95.991928,2480.086670 96.018936,2482.419678 &#xA;&#x9;C96.145889,2493.385498 96.572807,2493.832764 107.109673,2493.992432 &#xA;&#x9;C109.442307,2494.027832 111.775909,2494.000000 114.109070,2494.000000 &#xA;&#x9;C1064.038208,2494.000244 2013.967285,2494.000732 2963.896484,2493.994141 &#xA;&#x9;C2983.670410,2493.993896 2981.991699,2495.539307 2981.992188,2475.435547 &#xA;&#x9;C2982.001465,1809.818604 2982.000000,1144.201660 2982.000000,478.584625 &#xA;&#x9;C2982.000000,476.584778 2982.010254,474.584839 2981.998047,472.585052 &#xA;&#x9;C2981.923340,460.306702 2981.734619,460.106842 2969.910889,460.008698 &#xA;&#x9;C2966.911377,459.983795 2963.911377,460.003754 2960.911621,460.003754 &#xA;&#x9;C2566.274414,460.003693 2171.637207,460.003662 1775.000000,460.003662 &#xA;z"/>
  <path fill="#F020B6" stroke="none" d="&#xA;M1776.000000,460.003662 &#xA;&#x9;C2171.637207,460.003662 2566.274414,460.003693 2960.911621,460.003754 &#xA;&#x9;C2963.911377,460.003754 2966.911377,459.983795 2969.910889,460.008698 &#xA;&#x9;C2981.734619,460.106842 2981.923340,460.306702 2981.998047,472.585052 &#xA;&#x9;C2982.010254,474.584839 2982.000000,476.584778 2982.000000,478.584625 &#xA;&#x9;C2982.000000,1144.201660 2982.001465,1809.818604 2981.992188,2475.435547 &#xA;&#x9;C2981.991699,2495.539307 2983.670410,2493.993896 2963.896484,2493.994141 &#xA;&#x9;C2013.967285,2494.000732 1064.038208,2494.000244 114.109070,2494.000000 &#xA;&#x9;C111.775909,2494.000000 109.442307,2494.027832 107.109673,2493.992432 &#xA;&#x9;C96.572807,2493.832764 96.145889,2493.385498 96.018936,2482.419678 &#xA;&#x9;C95.991928,2480.086670 96.013397,2477.753418 96.013390,2475.420166 &#xA;&#x9;C96.013344,1809.803223 96.011711,1144.186157 96.021126,478.569153 &#xA;&#x9;C96.021408,458.460083 94.365479,460.010132 114.123291,460.009857 &#xA;&#x9;C667.748840,460.002197 1221.374390,460.003662 1776.000000,460.003662 &#xA;M1807.831543,905.639526 &#xA;&#x9;C1824.934326,911.205994 1842.134399,916.493225 1859.118896,922.399536 &#xA;&#x9;C1890.289429,933.238953 1921.325195,944.711304 1950.304688,960.544373 &#xA;&#x9;C2058.800049,1019.821228 2168.143066,1077.472656 2278.301025,1133.589966 &#xA;&#x9;C2306.800049,1148.108276 2335.236084,1162.726318 2365.571533,1173.227417 &#xA;&#x9;C2378.158936,1177.584717 2390.495361,1182.661499 2403.036133,1187.160156 &#xA;&#x9;C2430.311768,1196.944458 2457.656250,1206.537354 2484.944336,1216.287231 &#xA;&#x9;C2489.326904,1217.853027 2493.385498,1219.226440 2495.450439,1212.979858 &#xA;&#x9;C2494.715576,1211.606445 2493.992432,1210.108521 2493.142578,1208.686401 &#xA;&#x9;C2445.838135,1129.537842 2389.052734,1057.891602 2322.282715,994.310242 &#xA;&#x9;C2304.207031,977.097778 2285.497070,960.370544 2265.769531,945.112854 &#xA;&#x9;C2229.899658,917.370239 2191.966797,892.521545 2153.046387,869.203003 &#xA;&#x9;C2066.862793,817.567871 1975.753052,777.091370 1879.404785,748.596008 &#xA;&#x9;C1821.316162,731.416077 1762.168335,718.846008 1702.011230,711.784119 &#xA;&#x9;C1666.300171,707.591919 1630.409180,704.030334 1594.502563,702.585083 &#xA;&#x9;C1501.755127,698.852234 1409.584229,704.937317 1318.197388,721.971008 &#xA;&#x9;C1238.021729,736.915100 1160.015137,759.133972 1084.624756,790.290283 &#xA;&#x9;C988.173645,830.150269 899.428589,882.964050 818.736877,949.221313 &#xA;&#x9;C744.142456,1010.471924 678.886292,1080.557251 621.379761,1157.957520 &#xA;&#x9;C613.432129,1168.654541 605.683533,1179.509521 598.210327,1190.540405 &#xA;&#x9;C596.745911,1192.701904 595.826965,1196.506226 596.747803,1198.657715 &#xA;&#x9;C597.697876,1200.877319 601.018799,1202.686890 603.645264,1203.383667 &#xA;&#x9;C605.578430,1203.896484 608.101990,1202.439575 610.296570,1201.671997 &#xA;&#x9;C636.076172,1192.655396 662.131531,1184.337891 687.539917,1174.371826 &#xA;&#x9;C718.529297,1162.216919 750.118958,1150.839111 779.449524,1135.341064 &#xA;&#x9;C895.229187,1074.164185 1010.304260,1011.650208 1125.452148,949.284180 &#xA;&#x9;C1151.038574,935.426270 1177.524902,923.863708 1204.838867,914.081482 &#xA;&#x9;C1258.387207,894.903809 1313.571533,882.724304 1370.895996,876.577271 &#xA;&#x9;C1372.757080,876.010193 1374.618164,875.443054 1377.667725,874.728210 &#xA;&#x9;C1378.465332,874.694519 1379.262939,874.660828 1381.448364,875.461121 &#xA;&#x9;C1395.291748,874.621277 1409.184692,874.245605 1422.961182,872.777405 &#xA;&#x9;C1432.055664,871.808105 1440.982788,869.268494 1451.699707,867.348267 &#xA;&#x9;C1462.655396,866.620911 1473.608032,865.844604 1484.567139,865.174805 &#xA;&#x9;C1530.489746,862.367676 1576.401001,862.591187 1622.189209,867.131653 &#xA;&#x9;C1644.301636,869.324402 1666.407959,872.183899 1688.274536,876.096741 &#xA;&#x9;C1715.401367,880.950928 1742.277100,887.209167 1770.103516,893.923889 &#xA;&#x9;C1781.394165,900.274475 1793.423340,904.222961 1807.831543,905.639526 &#xA;M477.974457,1702.610352 &#xA;&#x9;C477.450317,1703.809326 476.547455,1704.981445 476.460754,1706.211304 &#xA;&#x9;C475.620544,1718.125854 474.372192,1730.048218 474.326080,1741.972412 &#xA;&#x9;C474.278656,1754.229614 475.143860,1766.516602 476.167725,1778.743896 &#xA;&#x9;C477.052338,1789.308472 478.599030,1799.825317 480.144012,1810.320435 &#xA;&#x9;C480.450836,1812.405029 482.077789,1814.295166 483.390259,1817.997192 &#xA;&#x9;C484.619781,1825.876709 484.984039,1834.013184 487.234863,1841.589233 &#xA;&#x9;C495.196564,1868.387085 502.434814,1895.518066 512.422241,1921.573975 &#xA;&#x9;C542.570435,2000.226562 589.573425,2067.353271 654.210754,2121.678711 &#xA;&#x9;C721.566406,2178.289062 798.446167,2217.164551 882.754578,2241.149414 &#xA;&#x9;C907.268066,2248.123047 932.725586,2253.170898 958.077820,2255.436035 &#xA;&#x9;C986.833740,2258.005127 1015.916077,2257.547852 1044.890015,2254.425537 &#xA;&#x9;C1100.467773,2248.436523 1153.257202,2233.099121 1203.517822,2208.958008 &#xA;&#x9;C1231.440918,2195.546387 1258.921875,2181.217285 1286.772949,2167.652588 &#xA;&#x9;C1327.500854,2147.816162 1368.122437,2127.729980 1409.263794,2108.781006 &#xA;&#x9;C1461.596191,2084.677490 1516.882080,2076.898438 1574.024414,2082.723389 &#xA;&#x9;C1586.836060,2084.029297 1600.410400,2085.287109 1611.952515,2090.377930 &#xA;&#x9;C1675.030151,2118.200195 1737.689941,2146.980469 1800.270264,2175.914062 &#xA;&#x9;C1830.196289,2189.750000 1859.133667,2205.803955 1889.393066,2218.821777 &#xA;&#x9;C1946.354858,2243.326904 2005.907593,2258.079346 2068.051514,2261.456787 &#xA;&#x9;C2098.758301,2263.125244 2129.465576,2262.080566 2159.778076,2257.598633 &#xA;&#x9;C2199.037598,2251.794678 2237.233398,2241.254150 2274.116699,2226.306885 &#xA;&#x9;C2301.945068,2215.029785 2329.806885,2203.393799 2354.414062,2186.188721 &#xA;&#x9;C2379.212402,2168.849854 2403.199219,2150.087402 2425.941406,2130.125244 &#xA;&#x9;C2476.295166,2085.927979 2516.762939,2033.759155 2546.875000,1973.716431 &#xA;&#x9;C2572.342285,1922.936523 2588.043945,1869.160278 2595.712158,1813.048828 &#xA;&#x9;C2598.504883,1792.613403 2599.955566,1771.951050 2601.074219,1751.340942 &#xA;&#x9;C2602.643799,1722.418701 2602.609863,1693.376465 2597.482910,1664.804565 &#xA;&#x9;C2586.717773,1604.813843 2568.867676,1547.077759 2540.518799,1492.817627 &#xA;&#x9;C2509.636719,1433.708252 2468.207031,1383.452393 2415.152100,1343.023438 &#xA;&#x9;C2343.645508,1288.533691 2261.902100,1258.004517 2173.750244,1240.008423 &#xA;&#x9;C2172.312012,1239.221924 2170.953125,1238.198242 2169.423096,1237.685303 &#xA;&#x9;C2151.983154,1231.837402 2134.042236,1228.671265 2115.666016,1228.201050 &#xA;&#x9;C2112.467773,1228.119141 2109.241699,1229.134155 2104.352783,1229.532227 &#xA;&#x9;C2099.722412,1229.057861 2095.096436,1228.222656 2090.460693,1228.162354 &#xA;&#x9;C1989.153931,1226.845215 1887.848755,1224.975098 1786.537354,1224.516724 &#xA;&#x9;C1634.564575,1223.829102 1482.585205,1223.649048 1330.612305,1224.224731 &#xA;&#x9;C1244.976807,1224.549072 1159.329102,1226.130493 1073.726685,1228.551392 &#xA;&#x9;C1038.827148,1229.538452 1003.943909,1233.477783 969.216431,1237.487061 &#xA;&#x9;C935.607483,1241.367188 902.263550,1247.492432 868.699463,1251.828735 &#xA;&#x9;C840.669739,1255.450195 813.898193,1262.450317 789.073425,1276.274414 &#xA;&#x9;C779.472473,1281.621094 769.536072,1286.363159 759.899170,1291.647949 &#xA;&#x9;C705.098022,1321.701294 656.082397,1359.202393 614.062500,1405.601440 &#xA;&#x9;C557.778381,1467.751343 519.733704,1539.977417 496.099365,1620.087769 &#xA;&#x9;C488.209991,1646.829468 480.610718,1673.654907 477.974457,1702.610352 &#xA;z"/>
  <path fill="#FEFEFE" stroke="none" d="&#xA;M2174.400635,1241.210693 &#xA;&#x9;C2261.902100,1258.004517 2343.645508,1288.533691 2415.152100,1343.023438 &#xA;&#x9;C2468.207031,1383.452393 2509.636719,1433.708252 2540.518799,1492.817627 &#xA;&#x9;C2568.867676,1547.077759 2586.717773,1604.813843 2597.482910,1664.804565 &#xA;&#x9;C2602.609863,1693.376465 2602.643799,1722.418701 2601.074219,1751.340942 &#xA;&#x9;C2599.955566,1771.951050 2598.504883,1792.613403 2595.712158,1813.048828 &#xA;&#x9;C2588.043945,1869.160278 2572.342285,1922.936523 2546.875000,1973.716431 &#xA;&#x9;C2516.762939,2033.759155 2476.295166,2085.927979 2425.941406,2130.125244 &#xA;&#x9;C2403.199219,2150.087402 2379.212402,2168.849854 2354.414062,2186.188721 &#xA;&#x9;C2329.806885,2203.393799 2301.945068,2215.029785 2274.116699,2226.306885 &#xA;&#x9;C2237.233398,2241.254150 2199.037598,2251.794678 2159.778076,2257.598633 &#xA;&#x9;C2129.465576,2262.080566 2098.758301,2263.125244 2068.051514,2261.456787 &#xA;&#x9;C2005.907593,2258.079346 1946.354858,2243.326904 1889.393066,2218.821777 &#xA;&#x9;C1859.133667,2205.803955 1830.196289,2189.750000 1800.270264,2175.914062 &#xA;&#x9;C1737.689941,2146.980469 1675.030151,2118.200195 1611.952515,2090.377930 &#xA;&#x9;C1600.410400,2085.287109 1586.836060,2084.029297 1574.024414,2082.723389 &#xA;&#x9;C1516.882080,2076.898438 1461.596191,2084.677490 1409.263794,2108.781006 &#xA;&#x9;C1368.122437,2127.729980 1327.500854,2147.816162 1286.772949,2167.652588 &#xA;&#x9;C1258.921875,2181.217285 1231.440918,2195.546387 1203.517822,2208.958008 &#xA;&#x9;C1153.257202,2233.099121 1100.467773,2248.436523 1044.890015,2254.425537 &#xA;&#x9;C1015.916077,2257.547852 986.833740,2258.005127 958.077820,2255.436035 &#xA;&#x9;C932.725586,2253.170898 907.268066,2248.123047 882.754578,2241.149414 &#xA;&#x9;C798.446167,2217.164551 721.566406,2178.289062 654.210754,2121.678711 &#xA;&#x9;C589.573425,2067.353271 542.570435,2000.226562 512.422241,1921.573975 &#xA;&#x9;C502.434814,1895.518066 495.196564,1868.387085 487.234863,1841.589233 &#xA;&#x9;C484.984039,1834.013184 484.619781,1825.876709 483.460632,1816.231934 &#xA;&#x9;C482.479218,1791.522217 481.331360,1768.581665 480.410309,1745.631958 &#xA;&#x9;C479.823456,1731.009888 479.572754,1716.374146 479.171326,1701.744629 &#xA;&#x9;C480.610718,1673.654907 488.209991,1646.829468 496.099365,1620.087769 &#xA;&#x9;C519.733704,1539.977417 557.778381,1467.751343 614.062500,1405.601440 &#xA;&#x9;C656.082397,1359.202393 705.098022,1321.701294 759.899170,1291.647949 &#xA;&#x9;C769.536072,1286.363159 779.472473,1281.621094 789.073425,1276.274414 &#xA;&#x9;C813.898193,1262.450317 840.669739,1255.450195 868.699463,1251.828735 &#xA;&#x9;C902.263550,1247.492432 935.607483,1241.367188 969.216431,1237.487061 &#xA;&#x9;C1003.943909,1233.477783 1038.827148,1229.538452 1073.726685,1228.551392 &#xA;&#x9;C1159.329102,1226.130493 1244.976807,1224.549072 1330.612305,1224.224731 &#xA;&#x9;C1482.585205,1223.649048 1634.564575,1223.829102 1786.537354,1224.516724 &#xA;&#x9;C1887.848755,1224.975098 1989.153931,1226.845215 2090.460693,1228.162354 &#xA;&#x9;C2095.096436,1228.222656 2099.722412,1229.057861 2105.696289,1230.153809 &#xA;&#x9;C2119.989746,1233.409302 2132.876465,1236.435547 2145.911133,1238.545288 &#xA;&#x9;C2155.305420,1240.065918 2164.896973,1240.366211 2174.400635,1241.210693 &#xA;z"/>
  <path fill="#FEFCFE" stroke="none" d="&#xA;M1369.999512,875.981934 &#xA;&#x9;C1313.571533,882.724304 1258.387207,894.903809 1204.838867,914.081482 &#xA;&#x9;C1177.524902,923.863708 1151.038574,935.426270 1125.452148,949.284180 &#xA;&#x9;C1010.304260,1011.650208 895.229187,1074.164185 779.449524,1135.341064 &#xA;&#x9;C750.118958,1150.839111 718.529297,1162.216919 687.539917,1174.371826 &#xA;&#x9;C662.131531,1184.337891 636.076172,1192.655396 610.296570,1201.671997 &#xA;&#x9;C608.101990,1202.439575 605.578430,1203.896484 603.645264,1203.383667 &#xA;&#x9;C601.018799,1202.686890 597.697876,1200.877319 596.747803,1198.657715 &#xA;&#x9;C595.826965,1196.506226 596.745911,1192.701904 598.210327,1190.540405 &#xA;&#x9;C605.683533,1179.509521 613.432129,1168.654541 621.379761,1157.957520 &#xA;&#x9;C678.886292,1080.557251 744.142456,1010.471924 818.736877,949.221313 &#xA;&#x9;C899.428589,882.964050 988.173645,830.150269 1084.624756,790.290283 &#xA;&#x9;C1160.015137,759.133972 1238.021729,736.915100 1318.197388,721.971008 &#xA;&#x9;C1409.584229,704.937317 1501.755127,698.852234 1594.502563,702.585083 &#xA;&#x9;C1630.409180,704.030334 1666.300171,707.591919 1702.011230,711.784119 &#xA;&#x9;C1762.168335,718.846008 1821.316162,731.416077 1879.404785,748.596008 &#xA;&#x9;C1975.753052,777.091370 2066.862793,817.567871 2153.046387,869.203003 &#xA;&#x9;C2191.966797,892.521545 2229.899658,917.370239 2265.769531,945.112854 &#xA;&#x9;C2285.497070,960.370544 2304.207031,977.097778 2322.282715,994.310242 &#xA;&#x9;C2389.052734,1057.891602 2445.838135,1129.537842 2493.142578,1208.686401 &#xA;&#x9;C2493.992432,1210.108521 2494.715576,1211.606445 2495.450439,1212.979858 &#xA;&#x9;C2493.385498,1219.226440 2489.326904,1217.853027 2484.944336,1216.287231 &#xA;&#x9;C2457.656250,1206.537354 2430.311768,1196.944458 2403.036133,1187.160156 &#xA;&#x9;C2390.495361,1182.661499 2378.158936,1177.584717 2365.571533,1173.227417 &#xA;&#x9;C2335.236084,1162.726318 2306.800049,1148.108276 2278.301025,1133.589966 &#xA;&#x9;C2168.143066,1077.472656 2058.800049,1019.821228 1950.304688,960.544373 &#xA;&#x9;C1921.325195,944.711304 1890.289429,933.238953 1859.118896,922.399536 &#xA;&#x9;C1842.134399,916.493225 1824.934326,911.205994 1806.792236,904.796936 &#xA;&#x9;C1794.640747,896.797119 1783.431763,889.958069 1769.261230,892.860840 &#xA;&#x9;C1742.277100,887.209167 1715.401367,880.950928 1688.274536,876.096741 &#xA;&#x9;C1666.407959,872.183899 1644.301636,869.324402 1622.189209,867.131653 &#xA;&#x9;C1576.401001,862.591187 1530.489746,862.367676 1484.567139,865.174805 &#xA;&#x9;C1473.608032,865.844604 1462.655396,866.620911 1450.119385,867.035645 &#xA;&#x9;C1426.865845,865.859741 1405.482178,868.449768 1384.213867,872.246277 &#xA;&#x9;C1382.734863,872.510315 1381.440674,873.809387 1380.060547,874.627197 &#xA;&#x9;C1379.262939,874.660828 1378.465332,874.694519 1376.411865,874.594849 &#xA;&#x9;C1373.437134,874.968323 1371.718384,875.475098 1369.999512,875.981934 &#xA;z"/>
  <path fill="#F461CA" stroke="none" d="&#xA;M478.572876,1702.177490 &#xA;&#x9;C479.572754,1716.374146 479.823456,1731.009888 480.410309,1745.631958 &#xA;&#x9;C481.331360,1768.581665 482.479218,1791.522217 483.313507,1815.370850 &#xA;&#x9;C482.077789,1814.295166 480.450836,1812.405029 480.144012,1810.320435 &#xA;&#x9;C478.599030,1799.825317 477.052338,1789.308472 476.167725,1778.743896 &#xA;&#x9;C475.143860,1766.516602 474.278656,1754.229614 474.326080,1741.972412 &#xA;&#x9;C474.372192,1730.048218 475.620544,1718.125854 476.460754,1706.211304 &#xA;&#x9;C476.547455,1704.981445 477.450317,1703.809326 478.572876,1702.177490 &#xA;z"/>
  <path fill="#F67CD3" stroke="none" d="&#xA;M2174.075439,1240.609619 &#xA;&#x9;C2164.896973,1240.366211 2155.305420,1240.065918 2145.911133,1238.545288 &#xA;&#x9;C2132.876465,1236.435547 2119.989746,1233.409302 2106.534180,1230.208984 &#xA;&#x9;C2109.241699,1229.134155 2112.467773,1228.119141 2115.666016,1228.201050 &#xA;&#x9;C2134.042236,1228.671265 2151.983154,1231.837402 2169.423096,1237.685303 &#xA;&#x9;C2170.953125,1238.198242 2172.312012,1239.221924 2174.075439,1240.609619 &#xA;z"/>
  <path fill="#F785D5" stroke="none" d="&#xA;M1380.754395,875.044189 &#xA;&#x9;C1381.440674,873.809387 1382.734863,872.510315 1384.213867,872.246277 &#xA;&#x9;C1405.482178,868.449768 1426.865845,865.859741 1449.261963,867.077454 &#xA;&#x9;C1440.982788,869.268494 1432.055664,871.808105 1422.961182,872.777405 &#xA;&#x9;C1409.184692,874.245605 1395.291748,874.621277 1380.754395,875.044189 &#xA;z"/>
  <path fill="#F9A8E2" stroke="none" d="&#xA;M1769.682373,893.392334 &#xA;&#x9;C1783.431763,889.958069 1794.640747,896.797119 1806.077393,904.518799 &#xA;&#x9;C1793.423340,904.222961 1781.394165,900.274475 1769.682373,893.392334 &#xA;z"/>
  <path fill="#F785D5" stroke="none" d="&#xA;M1370.447754,876.279541 &#xA;&#x9;C1371.718384,875.475098 1373.437134,874.968323 1375.817627,874.668701 &#xA;&#x9;C1374.618164,875.443054 1372.757080,876.010193 1370.447754,876.279541 &#xA;z"/>
</svg>